<?xml version="1.0" encoding="UTF-8"?>
<svg width="27px" height="27px" viewBox="0 0 27 27" version="1.1" xmlns="http://www.w3.org/2000/svg" xmlns:xlink="http://www.w3.org/1999/xlink">
    <!-- Generator: Sketch 64 (93537) - https://sketch.com -->
    <title>Group 745</title>
    <desc>Created with Sketch.</desc>
    <defs>
        <path d="M21.8785998,0.879428571 C23.0514459,-0.293142857 24.9476159,-0.293142857 26.1204068,0.879428571 C27.2931977,2.05255102 27.2931977,3.94861224 26.1204068,5.12118367 L26.1204068,5.12118367 L17.7423683,13.500551 L26.1204068,21.8788163 C27.2931977,23.0513878 27.2931977,24.947449 26.1204068,26.1205714 C25.5361052,26.7057551 24.7673221,27 23.9995309,27 C23.2317396,27 22.4639484,26.7057551 21.8785998,26.1205714 L21.8785998,26.1205714 L13.5005614,17.7423061 L5.12142083,26.1205714 C4.53717433,26.7057551 3.76833615,27 3.0005449,27 C2.23275365,27 1.4649624,26.7057551 0.879613868,26.1205714 C-0.293177071,24.947449 -0.293177071,23.0513878 0.879613868,21.8788163 L0.879613868,21.8788163 L9.25875439,13.500551 L0.879613868,5.12118367 C-0.293177071,3.94861224 -0.293232173,2.05255102 0.879613868,0.879428571 C2.05245991,-0.293142857 3.94862989,-0.293142857 5.12142083,0.879428571 L5.12142083,0.879428571 L13.5005614,9.25879592 L21.8785998,0.879428571 Z" id="path-1"></path>
    </defs>
    <g id="Page-2" stroke="none" stroke-width="1" fill="none" fill-rule="evenodd">
        <g id="Idee-projet-2" transform="translate(-926.000000, -166.000000)">
            <g id="Group-745" transform="translate(926.000000, 166.000000)">
                <mask id="mask-2" fill="white">
                    <use xlink:href="#path-1"></use>
                </mask>
                <g id="Clip-744"></g>
                <polygon id="Fill-743" fill="#000000" mask="url(#mask-2)" points="-3 30 30 30 30 -3 -3 -3"></polygon>
            </g>
        </g>
    </g>
</svg>