<?xml version="1.0" encoding="UTF-8"?>
<svg viewBox="0 0 393.24 491.03" xmlns="http://www.w3.org/2000/svg">
 <g fill="#ffffff">
  <g stroke="#fff">
   <g stroke-linejoin="bevel">
    <path d="m195.55 490.53h2.142l11-449.25h-24.142l11 449.25z"/>
    <path d="m170.19 99.68c-21.71 2.74-41.39-22.67-31.37-28.64 0.97-2.25 0.68999-3.42-1.63-2.99-23.6 3.25-38.52-16.36-35.92-36.81 0.17-1.37-0.771-1.65-1.53-1.7-0.88-0.060001-1.58 0.99-2.02 1.7-7.33 11.82-19.75 19.01-31.08 26.59-13 8.71-33.12 19.88-41.811 21.38-7.68 1.32-19.75 2.73-24.13-3.53-0.899-1.5-0.01-1.66 1.07-2.25 14.4-7.23 15.91-5.63 42.3-22.33 23.16-14.66 45.51-33.92 67-44.8 9.45-4.78 38.75-9.15 48.97 4.9 17.41 23.94-7.029 34.37-7.729 38.6-1.35 8.17 6.689 23.35 27.6 17.81l2.75-0.87 0.65 29.13-0.94 0.52c-4.08 2.009-8.189 3.04-12.18 3.29z"/>
    <path d="m92.032 44.509c0.7-0.79 3.82-2.29 4-1 0.48 3.4 2.29 8.03 4.29 11.79 0.68 1.27-0.81 2.89-1.75 4-13.399 11.32-29.21 22.09-42.87 28.15-4.39 1.53-9.26 2.39-13.95 2.01-3.159-0.25-7.55-0.07-9.069-2.85-0.351-0.65 0.149-1.53 0.58-2.12 21.21-8.749 37.469-21.059 58.769-39.98z"/>
    <path d="m100.57 62.27c0.62-0.66 1.7-1.44 2.93-0.93 2.881 3.35 4.471 4.94 7.851 6.43 1.08 0.47 2.45 1.96 0.649 3.5-18.92 16.04-33.25 29.69-52.029 24.55-0.601-0.16-0.46-2.05 0.069-2.36 11.141-6.42 23.96-13.481 40.53-31.19z"/>
    <path d="m115.95 71.99c2.95-1.99 0.49 0.45 13.3 1.4 1.66 0.12-0.189 3.64-0.77899 5.22-5.86 8.53-15.86 16.35-24.29 20.42-4.08 1.98-9.58 3.01-13.641 0.93-0.399-0.2-0.489-0.92-0.72-1.14-0.83-0.84 5.47-5.43 11.29-10.71 5.521-5.021 13.201-13.441 14.84-16.12z"/>
    <path d="m223.04 99.68c21.71 2.74 41.39-22.67 31.37-28.64-0.97099-2.25-0.68999-3.42 1.63-2.99 23.6 3.25 38.52-16.36 35.92-36.81-0.17001-1.37 0.76999-1.65 1.529-1.7 0.88098-0.060001 1.58 0.99 2.021 1.7 7.33 11.82 19.75 19.01 31.08 26.59 13 8.71 33.12 19.88 41.81 21.38 7.681 1.32 19.75 2.73 24.13-3.53 0.90002-1.5 0.011017-1.66-1.069-2.25-14.4-7.23-15.91-5.63-42.3-22.33-23.16-14.66-45.511-33.92-67-44.8-9.45-4.78-38.75-9.15-48.971 4.9-17.41 23.94 7.03 34.37 7.73 38.6 1.35 8.17-6.69 23.35-27.601 17.81l-2.75-0.87-0.649 29.13 0.939 0.52c4.08 2.009 8.191 3.04 12.181 3.29z"/>
    <path d="m301.2 44.509c-0.70001-0.79-3.82-2.29-4-1-0.48001 3.4-2.29 8.03-4.29 11.79-0.681 1.27 0.81 2.89 1.75 4 13.399 11.32 29.21 22.09 42.869 28.15 4.391 1.53 9.261 2.39 13.95 2.01 3.16-0.25 7.55-0.07 9.07-2.85 0.35001-0.65-0.14999-1.53-0.58002-2.12-21.209-8.749-37.469-21.059-58.769-39.98z"/>
    <path d="m292.66 62.27c-0.62-0.66-1.7-1.44-2.931-0.93-2.88 3.35-4.47 4.94-7.85 6.43-1.08 0.47-2.45 1.96-0.64999 3.5 18.92 16.04 33.25 29.69 52.03 24.55 0.60001-0.16 0.45999-2.05-0.070007-2.36-11.139-6.42-23.96-13.481-40.529-31.19z"/>
    <path d="m277.28 71.99c-2.949-1.99-0.48901 0.45-13.3 1.4-1.66 0.12 0.19 3.64 0.78 5.22 5.86 8.53 15.86 16.35 24.29 20.42 4.08 1.98 9.58 3.01 13.64 0.93 0.40002-0.2 0.49002-0.92 0.72101-1.14 0.82901-0.84-5.471-5.43-11.29-10.71-5.52-5.021-13.2-13.441-14.841-16.12z"/>
   </g>
   <path d="m196.61 0.5c10.16 0 18.41 8.25 18.41 18.41s-8.25 18.4-18.41 18.4-18.399-8.24-18.399-18.4 8.239-18.41 18.399-18.41z"/>
  </g>
  <g stroke-linejoin="bevel">
   <path d="m201.5 11.16c-0.88-1.48 0.37-4.14 3.13-3.25 10.66 4.84 5.4 23.47-6.38 22.95-1.81 0.049999-2.39-1.71-1.04-2.66 5.15-3.5 9.48-8.64 4.29-17.04z" stroke="#000" stroke-width=".5"/>
   <g stroke="#fff">
    <path d="m260.69 147.33c1.189-13.25-9.47-28.42-26.46-29.89-5.91-0.51-14.79-0.55-19.93 4.08-4.87 4.39 7.859 13.56 14.54 14.22 8.949 0.87999 13.659-3.42 15.26-5.92 0.54999-0.84001 1.54-0.5 1.89 0.35998 4.06 30.312-26.827 37.222-49.365 43.601 4.668 1.321 8.978 2.62 12.545 4.099 6.315 2.621 11.71 5.443 16.313 8.405 17.681-9.139 33.649-21.456 35.207-38.955z"/>
    <path d="m177.64 412.78c-10.69 10.91-9.85 27.12 1.8 38.72-1.8-11.93-6.21-20.91 7.18-31.85 3.354-2.743 6.631-4.728 10.003-6.621-3.78-2.123-7.685-4.133-11.957-6.969-2.699 2.518-5.144 4.802-7.026 6.72z"/>
    <path d="m218.29 268.51c-6.986-4.442-14.61-8.368-21.666-12.318-4.123-2.309-8.052-4.626-11.544-7.062-19.95-13.91-20.11-37.6 8.97-49.2 0.83899-0.334 1.7-0.677 2.574-1.024-8.702-3.454-19.041-7.548-28.858-12.622-35.285 22.698-23.452 53.638-12.766 65.925 5.244 6.019 12.371 11.305 19.957 16.301 7.218 4.753 14.846 9.243 21.667 13.849 5.177 3.495 9.89 7.056 13.596 10.851 13.09 13.41 2.3 28.45-3.11 32.51-3.36 2.519-6.904 4.779-10.486 6.994 7.544 4.661 15.253 9.117 21.811 15.288 8.746-6.794 16.653-15.453 21.025-27.021 10.082-26.684-3.5-41.235-21.17-52.471z"/>
    <path d="m225.48 186.28c-4.604-2.961-9.998-5.784-16.313-8.405-3.567-1.479-7.877-2.777-12.545-4.099-22.537-6.379-53.424-13.289-49.364-43.601 0.35001-0.86 1.34-1.2 1.88-0.36 1.6 2.5 6.31 6.8 15.27 5.92 6.681-0.66 19.41-9.83 14.54-14.22-5.14-4.63-14.02-4.59-19.93-4.08-16.99 1.47-27.65 16.64-26.47 29.89 1.564 17.499 17.533 29.816 35.216 38.955 9.817 5.074 20.156 9.168 28.858 12.622 0.875 0.347 1.736 0.689 2.575 1.024 29.08 11.6 28.92 35.29 8.97 49.2-3.492 2.436-7.421 4.753-11.545 7.062 7.056 3.95 14.68 7.876 21.666 12.318 7.584-4.995 14.709-10.282 19.949-16.3 10.695-12.288 22.53-43.228-12.757-65.926z"/>
    <path d="m215.61 412.78c-1.883-1.918-4.328-4.203-7.027-6.722-3.752-3.501-7.995-7.46-11.958-11.563-2.786-2.886-5.434-5.837-7.654-8.746-9.3-12.17-0.25-19.99 6.87-23.77 0.259-0.138 0.522-0.27802 0.785-0.41699-6.839-3.64-14.607-7.967-21.81-13.562-1.496 1.407-2.937 2.897-4.296 4.508-12.41 14.7-9.17 32.181 0 41.65 5.247 5.416 9.88 9.069 14.146 11.9 4.272 2.836 8.177 4.846 11.957 6.969 3.371 1.894 6.646 3.878 9.997 6.621 13.4 10.939 8.99 19.92 7.19 31.85 11.65-11.598 12.491-27.808 1.8-38.718z"/>
    <path d="m222.73 352.51c-1.359-1.61-2.8-3.101-4.296-4.508-6.558-6.171-14.267-10.627-21.811-15.288-3.584-2.215-7.13-4.476-10.493-6.994-5.4-4.06-16.2-19.1-3.101-32.51 3.705-3.795 8.419-7.355 13.595-10.851-6.821-4.605-14.449-9.096-21.667-13.849-17.669 11.235-31.25 25.787-21.167 52.47 4.372 11.568 12.279 20.228 21.025 27.021 7.202 5.595 14.971 9.922 21.81 13.562 0.26199 0.13898 0.52499 0.27899 0.784 0.41699 7.12 3.779 16.17 11.6 6.87 23.77-2.221 2.909-4.868 5.86-7.655 8.746 3.963 4.103 8.206 8.062 11.958 11.563 4.265-2.83 8.898-6.483 14.147-11.898 9.17-9.47 12.411-26.951 9.92e-4 -41.651z"/>
   </g>
  </g>
 </g>
</svg>
