<?xml version="1.0" encoding="UTF-8"?>
<svg enable-background="new 0 0 38.1 38.1" version="1.1" viewBox="0 0 38.1 38.1" xmlns="http://www.w3.org/2000/svg">
 <style type="text/css">.st0{fill:#00A5CB;} .st1{fill:#0190B0;} .st2{fill:#FFFFFF;} .st3{fill:#F2F2F2;}</style>
 <path class="st0" d="M19,37.8C8.6,37.8,0.2,29.4,0.2,19S8.6,0.1,19,0.1"/>
 <path class="st1" d="M19,0.1c10.4,0,18.8,8.4,18.8,18.8S29.4,37.8,19,37.8"/>
 <circle class="st2" cx="8.2" cy="27.5" r="2.7"/>
 <circle class="st2" cx="17.5" cy="3.2" r="1.1"/>
 <circle class="st2" cx="20.5" cy="3.2" r="1.1"/>
 <path class="st2" d="m14.3 13.7l0.2 1c0.5-0.2 0.9-0.4 1.4-0.6 2.5-0.8 5-0.6 7.3 0.6h0.1l0.2-1c-2.5-1.2-5.2-1.4-7.9-0.5-0.5 0.1-0.9 0.3-1.3 0.5z"/>
 <path class="st2" d="m18.1 2.2z"/>
 <path class="st2" d="m30 22.8c-0.4-3.2-2.3-6.2-5-8.1l-0.2 1.1c2.3 1.8 3.8 4.4 4.2 7.1 0.4 2.8-0.6 5.4-2.6 7.3-1.1 1-2.9 1.5-4.3 1.2-0.8-0.2-1.8-0.6-2.4-1.9-0.2-0.5-0.3-1-0.5-1.5-0.1-0.5-0.2-0.9-0.2-1.4 0.1-0.5 0.2-1.1 0.5-1.6 0.1-0.3 0.2-0.5 0.4-0.7 0.1-0.2 0.3-0.4 0.5-0.5 0.4-0.3 0.8-0.5 1.1-0.8 0.6-0.5 1-1.2 1.3-1.9 0.9-1.8 1.3-3.7 1.6-5.5l0.2-1.1c0.3-1.9 0.6-3.8 0.8-6.1v-0.3c0.2-1.6 0.3-3.5-0.9-4.8-0.8-0.9-2-1-3.1-0.9 0.3 0.2 0.4 0.5 0.4 0.9v0.1c0.8 0 1.5 0.1 2 0.6 1 1 0.8 2.6 0.7 4v0.3c-0.2 2.1-0.4 4-0.7 5.7l-0.2 1c-0.3 1.9-0.7 3.9-1.6 5.6-0.3 0.5-0.6 1.1-1.1 1.6-0.1 0.1-0.2 0.1-0.3 0.2-0.1 0-0.2 0.1-0.3 0.2-0.5 0.3-1.1 0.4-1.7 0.3-0.1 0-0.2 0-0.3-0.1-1.2-0.3-2.4-1.4-2.9-2.7-0.6-1.6-1-3.2-1.3-4.8l-0.2-1.4-0.3-2.1c-0.1-0.5-0.1-0.9-0.2-1.4-0.3-2-0.7-4.1 0.2-5.7 0.6-1.1 1.6-1.5 2.6-1.6v-0.1c0-0.4 0.2-0.7 0.5-0.9-1.8 0-3.3 0.8-4 2.2-1 2-0.6 4.3-0.3 6.4 0.1 0.5 0.2 0.9 0.2 1.4 0.1 0.8 0.2 1.6 0.4 2.5l0.2 1.1c0.3 1.7 0.7 3.3 1.3 4.9 0.2 0.6 0.6 1.1 1 1.6 0.2 0.2 0.5 0.4 0.7 0.7 0.3 0.3 0.7 0.5 0.9 0.9 0.3 0.4 0.7 0.9 0.9 1.5 0.2 0.7 0.2 1.5 0.3 2.2 0.1 0.9 0.3 1.7 0.7 2.5 0.6 1.3 1.7 2.2 3.1 2.5 0.4 0.1 0.7 0.1 1.1 0.1 1.4 0 2.9-0.6 4-1.5 2.2-2.3 3.3-5.2 2.8-8.3z"/>
 <path class="st2" d="m8.2 19.8c-0.7 1.5-1 3-0.9 4.4l1-0.1c-0.1-1.2 0.2-2.6 0.8-3.9 0.9-1.8 2.1-3.2 3.6-4.4l-0.2-1.1c-1.7 1.3-3.3 3-4.3 5.1z"/>
</svg>
